<?xml version="1.0" encoding="utf-8"?>
<!-- Generator: Adobe Illustrator 24.3.0, SVG Export Plug-In . SVG Version: 6.00 Build 0)  -->
<svg version="1.1" xmlns="http://www.w3.org/2000/svg" xmlns:xlink="http://www.w3.org/1999/xlink" x="0px" y="0px"
	 viewBox="0 0 331 84.6" style="enable-background:new 0 0 331 84.6;" xml:space="preserve">
<style type="text/css">
	.st0{display:none;}
	.st1{display:none;fill:#FFFFFF;stroke:#3FA9F5;stroke-width:0.5;stroke-miterlimit:10;}
	.st2{display:none;stroke:#3FA9F5;stroke-width:0.5;stroke-miterlimit:10;}
	.st3{fill:#FF7300;}
	.st4{fill-rule:evenodd;clip-rule:evenodd;fill:#FF7300;}
	.st5{fill:#FFFFFF;}
	.st6{fill:#231F20;}
</style>
<g id="Layer_1">
	<g class="st0">
		
			<image style="display:inline;overflow:visible;" width="460" height="222" id="Ie39eh_1_" xlink:href="EB99E1373A2802CB.jpg"  transform="matrix(1 0 0 1 -61.1025 -67.568)">
		</image>
	</g>
	<line class="st1" x1="238.7" y1="-41.1" x2="238.7" y2="118.8"/>
	<line class="st2" x1="230.5" y1="61.3" x2="331.2" y2="61.3"/>
	<path class="st0" d="M133.2,13.6c-0.3-8-6.9-14.3-15-14.3H79.1l-0.6,0c-8,0.3-14.3,6.9-14.3,15l0,17.3l-9.5,0l-0.4,0
		c-2.2-0.2-4-1.9-4-4l0-12.9c2.7-1.3,4.6-4.1,4.6-7.3c0-4.5-3.6-8.1-8.1-8.1s-8.1,3.6-8.1,8.1c0,3.2,1.9,6,4.6,7.3l0,12.9l0,0.5
		c0.3,5.8,5.2,10.5,11.2,10.5l9.5,0l0,14.9l0,0.6c0.3,8,6.9,14.3,15,14.3h39.2l0.6,0c8-0.3,14.3-6.9,14.3-15V14.2L133.2,13.6z
		 M126.3,53.4l0,0.5c-0.3,4.2-3.8,7.6-8,7.6H79.1l-0.5,0c-4.2-0.3-7.6-3.8-7.6-8V14.2l0-0.5c0.3-4.2,3.8-7.6,8-7.6h39.2
		c4.5,0,8.1,3.6,8.1,8.1V53.4z"/>
	<path class="st0" d="M99.4,17.7c4,0,7.4,1,10.2,2.9s4.5,4.2,5.2,6.7c-1,1.4-1.8,2.2-2.5,2.4c-0.7,0.2-2,0-3.8-0.7
		c-0.5-1.5-1.5-2.8-3.2-4c-1.7-1.1-3.6-1.7-5.8-1.7c-3.1,0-5.6,1-7.5,3c-1.9,2-2.9,4.4-2.9,7.3c0,2.8,1,5.3,2.9,7.3
		c1.9,2.1,4.5,3.1,7.5,3.1c2.2,0,4.2-0.5,5.8-1.6c1.7-1.1,2.7-2.4,3.2-3.9c1.6-0.5,2.7-0.6,3.4-0.5c0.7,0.2,1.6,0.9,2.8,2.1
		c-0.7,2.5-2.4,4.7-5.1,6.6c-2.5,1.8-5.6,2.8-9.2,2.9l-0.9,0v0.1c-4.9,0-8.9-1.5-12.1-4.6c-3.2-3.1-4.8-6.9-4.8-11.5
		s1.6-8.4,4.8-11.5C90.5,19.2,94.6,17.7,99.4,17.7z"/>
	<path class="st0" d="M149,6.1v18c2.3-3.3,5.5-5,9.6-5.2l0.8,0v-0.1c3.8,0,6.8,1.2,8.8,3.5c1.9,2.2,2.9,5.1,3.1,8.8l0,0.9v17.6H165
		V33.2c0-2.7-0.6-4.7-1.9-6.2c-1.3-1.5-3.1-2.2-5.5-2.2c-2.6,0-4.7,0.9-6.3,2.7c-1.4,1.7-2.2,3.9-2.3,6.5l0,0.7v14.9h-6.3V6.1H149z"
		/>
	<path class="st0" d="M233.6,19.3l0.8,0.1v5.8c-3.3-0.5-5.8,0.1-7.6,1.9c-1.7,1.7-2.5,4.4-2.6,8.2l0,0.8v13.6h-6.3v-30h6.3l0,4.8
		l0.3-0.5c0.9-1.6,2.1-2.8,3.7-3.7C229.7,19.5,231.5,19.1,233.6,19.3z"/>
	<path class="st0" d="M205.7,23.4c-3-3-6.8-4.5-11.4-4.5c-4.6,0-8.4,1.5-11.4,4.5c-3,3-4.5,6.8-4.5,11.2c0,4.5,1.5,8.3,4.5,11.3
		c3,3,6.8,4.5,11.4,4.5h0l0.8,0c4.2-0.2,7.7-1.7,10.5-4.5c3-3,4.5-6.8,4.5-11.3C210.3,30.2,208.8,26.4,205.7,23.4z M201.4,41.9
		c-1.9,1.9-4.2,2.9-7.1,2.9c-2.9,0-5.2-1-7.1-2.9c-1.8-1.9-2.8-4.3-2.8-7.2c0-2.9,0.9-5.3,2.8-7.3c1.8-1.9,4.2-2.9,7.1-2.9
		c2.9,0,5.2,1,7.1,2.9s2.8,4.3,2.8,7.3C204.2,37.6,203.2,40,201.4,41.9z"/>
	<path class="st0" d="M303.6,23.4c-3-3-6.8-4.5-11.4-4.5c-4.6,0-8.4,1.5-11.4,4.5c-3,3-4.5,6.8-4.5,11.2c0,4.5,1.5,8.3,4.5,11.3
		c3,3,6.8,4.5,11.4,4.5h0l0.8,0c4.2-0.2,7.7-1.7,10.5-4.5c3-3,4.5-6.8,4.5-11.3C308.1,30.2,306.6,26.4,303.6,23.4z M299.2,41.9
		c-1.9,1.9-4.2,2.9-7.1,2.9s-5.2-1-7.1-2.9c-1.8-1.9-2.8-4.3-2.8-7.2c0-2.9,0.9-5.3,2.8-7.3c1.8-1.9,4.2-2.9,7.1-2.9s5.2,1,7.1,2.9
		s2.8,4.3,2.8,7.3C302,37.6,301.1,40,299.2,41.9z"/>
	<path class="st0" d="M266,23.3c-2.7-2.9-6.5-4.3-11.2-4.3c-4.6,0-8.3,1.5-11.2,4.5s-4.3,6.8-4.3,11.3c0,4.7,1.5,8.5,4.5,11.4
		c3,2.9,6.8,4.4,11.6,4.4l-0.1-0.1l0.9,0c3.2-0.1,5.9-1,8.2-2.5c2.5-1.7,4.3-3.7,5.3-6l-5.7-1.7l-0.3,0.5c-1.6,2.9-4.4,4.3-8.3,4.3
		c-2.9,0-5.3-0.8-7.1-2.3c-1.7-1.5-2.7-3.6-2.9-6.1h24.4L270,36c0.1-0.7,0.1-1.3,0.1-1.8C270.1,29.8,268.7,26.1,266,23.3z
		 M245.5,32.5l0.1-0.7c0.3-2,1.3-3.7,2.8-5.1c1.7-1.6,3.8-2.4,6.4-2.4c2.7,0,4.8,0.8,6.4,2.3c1.6,1.5,2.5,3.5,2.7,5.9H245.5z"/>
	<g>
		<polygon class="st3" points="276.6,61.7 271.7,74.2 266.8,60.8 261.6,74.2 257.1,61.7 255.1,61.7 261.5,79.2 266.8,65.9 
			271.7,79.2 278.7,61.7 		"/>
		<path class="st3" d="M286.5,70.6c-0.8-0.7-5.1-2.9-5.6-3.3c-0.5-0.4-0.8-0.9-0.8-1.7c0-0.7,0.3-1.3,0.8-1.8c0.6-0.5,1.2-0.7,2-0.7
			c0.5,0,1,0.1,1.3,0.3c0.4,0.2,0.7,0.5,1,1l0.2,0.3c0,0,0.1,0.1,0.2,0.2l1.5-0.9c-0.5-0.9-1.1-1.5-1.8-1.9
			c-0.7-0.4-1.5-0.7-2.3-0.7c-1.4,0-2.6,0.4-3.5,1.2c-0.9,0.8-1.3,1.8-1.3,3.1c0,1.2,0.4,2.1,1.2,2.7c0.8,0.6,4.9,2.8,5.5,3.2
			c0.6,0.4,0.9,1.1,0.9,1.9c0,1-0.3,1.8-1,2.4c-0.6,0.6-1.5,1-2.4,1c-0.9,0-1.6-0.3-2.1-0.8c-0.6-0.5-1-1.3-1.2-2.3l-1.8,0.6
			c0.2,0.7,0.4,1.3,0.7,1.8c0.3,0.5,0.7,1,1.1,1.4c0.9,0.7,2,1.1,3.4,1.1c1.4,0,2.7-0.5,3.7-1.5c1-1,1.5-2.2,1.5-3.6
			C287.7,72.2,287.3,71.3,286.5,70.6z"/>
		<path d="M307.5,69.5c0.4-0.1,0.9-0.2,1.3-0.2c1.3,0,2.3,0.4,3.1,1.2c0.8,0.8,1.2,1.8,1.2,2.9c0,0.8-0.2,1.5-0.6,2.2
			c-0.4,0.7-1.1,1.6-2.2,2.8l-3.4,3.7h6.4v1.3h-9.4l5.3-5.7c1.1-1.1,1.8-2,2.1-2.6c0.3-0.6,0.5-1.1,0.5-1.7c0-0.8-0.3-1.4-0.9-2
			c-0.6-0.6-1.3-0.8-2.1-0.8c-0.5,0-0.9,0.1-1.3,0.3C307.5,70.5,307.5,69.6,307.5,69.5z"/>
		<g>
			<ellipse class="st4" cx="297.4" cy="70" rx="7.6" ry="7.7"/>
			<path d="M297.4,60.6c-5.2,0-9.5,4.2-9.5,9.4s4.2,9.4,9.5,9.4s9.5-4.2,9.5-9.4S302.6,60.6,297.4,60.6z M297.4,77.7
				c-4.2,0-7.6-3.4-7.6-7.7c0-4.2,3.4-7.7,7.6-7.7s7.6,3.4,7.6,7.7C305,74.3,301.6,77.7,297.4,77.7z"/>
			<path class="st5" d="M305,69.4l-2.8,0l-1.4,2.5l-3.4-8.3l-3.1,6.9l-4.5,0c0,0.4,0.1,0.7,0.1,1.1l5.1,0l2.3-5.2l3.3,8.1l2.2-3.9
				l2.1,0c0-0.2,0-0.3,0-0.5C305,69.8,305,69.6,305,69.4z"/>
		</g>
	</g>
	<g>
		<path d="M244.8,67.1c0,0.9-0.2,1.6-0.6,2.1c-0.4,0.5-1,0.8-1.6,0.8c-0.7,0-1.3-0.3-1.7-0.8l0,0.7h-0.9v-8.3h1v3.1
			c0.4-0.5,1-0.7,1.7-0.7s1.3,0.3,1.7,0.8C244.6,65.4,244.8,66.1,244.8,67.1L244.8,67.1z M243.8,67c0-0.7-0.1-1.2-0.4-1.6
			s-0.6-0.6-1.1-0.6c-0.7,0-1.1,0.3-1.4,0.9v2.5c0.3,0.6,0.8,0.9,1.4,0.9c0.5,0,0.8-0.2,1.1-0.6C243.6,68.3,243.8,67.8,243.8,67z"/>
		<path d="M247.9,68.5l1.4-4.4h1.1l-2.3,6.7c-0.4,1-0.9,1.5-1.7,1.5l-0.2,0l-0.4-0.1v-0.8l0.3,0c0.3,0,0.6-0.1,0.8-0.2
			c0.2-0.1,0.3-0.4,0.5-0.7l0.2-0.6l-2.1-5.7h1.1L247.9,68.5z"/>
	</g>
</g>
<g id="Layer_2">
	<g>
		<g>
			<polygon class="st3" points="323.7,2.3 325.6,5.7 323.4,9.4 327.8,9.4 329.7,12.8 317.6,12.8 			"/>
			<polygon class="st3" points="308.5,12.8 310.4,9.4 314.8,9.4 312.6,5.7 314.6,2.3 320.6,12.8 			"/>
			<polygon class="st6" points="321.3,20.7 319.1,16.9 316.9,20.7 313,20.7 319.1,10.2 325.2,20.7 			"/>
		</g>
		<path class="st6" d="M46,49.8v-7.9h19.8c0.9,0,1.7-0.3,2.3-1c0.6-0.6,1-1.4,1-2.3c0-0.9-0.3-1.7-1-2.3c-0.6-0.6-1.4-1-2.3-1h-8.7
			c-3.1,0-5.7-1.1-7.9-3.3C47,29.8,46,27.3,46,24.2c0-3.1,1.1-5.7,3.3-7.9c2.2-2.2,4.8-3.3,7.9-3.3H77v7.9H57.1
			c-0.9,0-1.7,0.3-2.3,1c-0.6,0.6-1,1.4-1,2.3c0,0.9,0.3,1.7,1,2.3c0.6,0.6,1.4,1,2.3,1h8.7c3.1,0,5.7,1.1,7.9,3.3
			c2.2,2.2,3.3,4.8,3.3,7.9c0,3.1-1.1,5.7-3.3,7.9c-2.2,2.2-4.8,3.3-7.9,3.3H46z"/>
		<path class="st6" d="M98.2,49.8c-5.1,0-9.4-1.8-13-5.4c-3.6-3.6-5.4-7.9-5.4-13s1.8-9.4,5.4-13c3.6-3.6,7.9-5.4,13-5.4h15.5v7.9
			H98.2c-2.9,0-5.4,1-7.4,3.1c-2,2.1-3.1,4.6-3.1,7.4s1,5.4,3.1,7.4c2.1,2,4.6,3.1,7.4,3.1h7.6v-6.6h-5.8v-7.9h13.6v22.3H98.2z"/>
		<path class="st6" d="M188.7,49.8l-17.7-17.6v17.6h-7.9V13h19.8c3.1,0,5.7,1.1,7.9,3.3c2.2,2.2,3.3,4.8,3.3,7.9
			c0,3.1-1.1,5.7-3.3,7.9c-1,1-2,1.7-3.1,2.3l-2.3,1.1l14.3,14.3H188.7z M182.9,27.5c0.9,0,1.7-0.3,2.3-1c0.6-0.6,1-1.4,1-2.3
			c0-0.9-0.3-1.7-1-2.3c-0.6-0.6-1.4-1-2.3-1h-12v6.6H182.9z"/>
		<path class="st6" d="M202.6,49.8V13H218c5.1,0,9.4,1.8,13,5.4c3.6,3.6,5.4,7.9,5.4,13s-1.8,9.4-5.4,13c-3.6,3.6-7.9,5.4-13,5.4
			H202.6z M218,41.9c2.9,0,5.4-1,7.4-3.1c2-2.1,3.1-4.6,3.1-7.4s-1-5.4-3.1-7.4c-2.1-2-4.6-3.1-7.4-3.1h-7.6v21H218z"/>
		<path class="st6" d="M290.9,49.8c-5.1,0-9.4-1.8-13-5.4c-3.6-3.6-5.4-7.9-5.4-13s1.8-9.4,5.4-13c3.6-3.6,7.9-5.4,13-5.4
			c5.1,0,9.4,1.8,13,5.4c3.6,3.6,5.4,7.9,5.4,13s-1.8,9.4-5.4,13C300.3,48,296.1,49.8,290.9,49.8z M290.9,20.9c-2.9,0-5.4,1-7.4,3.1
			c-2,2.1-3.1,4.6-3.1,7.4s1,5.4,3.1,7.4c2.1,2,4.6,3.1,7.4,3.1c2.9,0,5.4-1,7.4-3.1c2-2.1,3.1-4.6,3.1-7.4s-1-5.4-3.1-7.4
			C296.3,21.9,293.8,20.9,290.9,20.9z"/>
		<polygon class="st6" points="1.5,49.8 10.3,49.8 22.7,28.2 35.1,49.8 43.9,49.8 22.7,13 		"/>
		<polygon class="st6" points="117.1,49.8 125.9,49.8 138.3,28.2 150.8,49.8 159.5,49.8 138.3,13 		"/>
		<polygon class="st6" points="239.8,49.7 239.8,13 270.5,13 270.5,20.8 247.7,20.8 247.7,27.6 264.8,27.6 264.8,35.2 247.7,35.2 
			247.7,41.9 270.5,41.9 270.5,49.7 		"/>
	</g>
</g>
</svg>
